# xmcd
#
# Track frame offsets:
#	150
#	13222
#	25050
#	38329
#	51879
#	64909
#	79330
#	97562
#	113919
#	123860
#	142611
#	157826
#	169228
#	193200
#	206072
#	226751
#	237662
#	250896
#	266315
#	278907
#	294835
#	314137
#	333735
#
# Disc length: 4666 seconds
#
# Revision: 1
# Processed by: cddbd v1.5.1PL2 Copyright (c) Steve Scherf et al.
# Submitted via: audiograbber 1.80
#
DISCID=3e123817
DTITLE=Spaleny Petr - Obycejny muz CD1
DYEAR=1900
DGENRE=
TTITLE0=Plakalo Bejby
TTITLE1=Co Jsem Zac
TTITLE2=Klic Od Varhan
TTITLE3=Hrosi Kuze
TTITLE4=To Vadi
TTITLE5=Davam Ruzi Bilou
TTITLE6=Podivny Hry Lidi
TTITLE7=Kdybych Ja Byl Kovarem
TTITLE8=Zvon Silencuv
TTITLE9=Dymka Je Zazrak
TTITLE10=Trapim Se Trapim
TTITLE11=Dama Pri Tele
TTITLE12=Zbrojnos
TTITLE13=Byla To Past
TTITLE14=Dlouho Dlouho Spim
TTITLE15=Tano Nashledanou
TTITLE16=Rezavy Vlasy
TTITLE17=Byla Lepsi Nez Ja Sam 
TTITLE18=Mlada Matka S Deckem
TTITLE19=Josefina
TTITLE20=Sylvie Nema Cas
TTITLE21=Obycejny Muz
TTITLE22=Houpaci sit
EXTD=
EXTT0=
EXTT1=
EXTT2=
EXTT3=
EXTT4=
EXTT5=
EXTT6=
EXTT7=
EXTT8=
EXTT9=
EXTT10=
EXTT11=
EXTT12=
EXTT13=
EXTT14=
EXTT15=
EXTT16=
EXTT17=
EXTT18=
EXTT19=
EXTT20=
EXTT21=
EXTT22=
PLAYORDER=
